<?xml version="1.0" encoding="utf-8"?>
<!-- Generator: Adobe Illustrator 17.0.2, SVG Export Plug-In . SVG Version: 6.00 Build 0)  -->
<!DOCTYPE svg PUBLIC "-//W3C//DTD SVG 1.1//EN" "http://www.w3.org/Graphics/SVG/1.1/DTD/svg11.dtd">
<svg version="1.1" id="Calque_1" xmlns="http://www.w3.org/2000/svg" xmlns:xlink="http://www.w3.org/1999/xlink" x="0px" y="0px"
	 width="281.538px" height="92.308px" viewBox="0 0 281.538 92.308" enable-background="new 0 0 281.538 92.308"
	 xml:space="preserve">
<g>
	<g>
		<g>
			<g>
				<polygon points="109.446,33.947 109.446,29.345 87.983,29.345 87.986,61.933 109.446,61.933 109.446,57.387 92.852,57.387 
					92.852,48.04 107.054,48.04 107.054,43.649 92.852,43.649 92.852,33.947 				"/>
				<polygon points="246.995,29.068 246.995,62.46 251.866,62.46 251.866,29.068 252.116,29.068 252.116,29.068 246.746,29.068 
					246.746,29.068 				"/>
			</g>
			<g>
				<path d="M184.359,29.409H179.5v19.232c0,5.436-3.628,9.232-8.823,9.232c-5.134,0-8.72-3.838-8.72-9.333v-19.13h-4.858v19.488
					c0,7.741,5.837,13.578,13.578,13.578c7.799,0,13.681-5.837,13.681-13.578V29.409z"/>
				<path d="M222.103,61.965h5.863l-7.702-12.982l0.271-0.109c4.769-1.919,7.395-5.285,7.395-9.478
					c0-5.694-4.675-9.987-10.874-9.987h-13.268v32.556h4.756v-12.65h6.773L222.103,61.965z M208.646,33.858h8.001
					c3.691,0,6.475,2.425,6.475,5.641c0,3.891-3.257,5.927-6.475,5.927h-8.001V33.858z"/>
			</g>
		</g>
		<path d="M64.477,50.775v4.135c0,7.261,2.267,11.021,7.345,12.166l1.154-1.733c-3.12-1.581-3.58-5.203-3.587-8.913l-0.003-0.094
			l-0.07-26.957h-3.606L49.986,53.17L34.903,29.377h-4.284v32.615h4.687L35.27,39.497L48.987,59.75h1.733l13.763-20.249v11.281
			L64.477,50.775z"/>
	</g>
	<path d="M121.541,58.306c1.119,1.332,3.897,4.042,7.963,4.042c6.231,0,10.257-4.309,10.257-10.977V29.347h-4.83v22.079
		c0,4.633-2.726,6.707-5.427,6.707c-1.926,0-4.25-1.812-5.22-2.817l-0.449,0.438L122,57.743L121.541,58.306z"/>
</g>
</svg>
